<svg width="160" height="96" viewBox="0 0 160 96" fill="none" xmlns="http://www.w3.org/2000/svg">
<path id="loog" d="M153.857 61.0909L139.192 46.419L109.604 17.581L99.8269 7.96838C89.0209 -2.65613 71.2682 -2.65613 60.2049 7.96838L50.428 17.581L20.8402 46.419L6.17486 60.8379C-2.05829 68.9328 -2.05829 81.834 6.17486 89.9289C14.408 98.0237 27.5296 98.0237 35.7627 89.9289L50.428 75.5099L65.0933 89.9289C73.3265 98.0237 86.448 98.0237 94.6812 89.9289C102.914 81.834 102.914 68.9328 94.6812 60.8379L109.346 75.2569L124.012 89.6759C132.245 97.7708 145.366 97.7708 153.6 89.6759C162.09 82.087 162.09 68.9328 153.857 61.0909Z" fill="#8A4AF3"/>
</svg>
