<svg width="350" height="80" viewBox="0 0 350 80" fill="none" xmlns="http://www.w3.org/2000/svg">
<path fill-rule="evenodd" clip-rule="evenodd" d="M0 26.5999V58.1328C2.64989 55.0823 6.8431 53.1975 10.6788 53.0255H26.778C41.567 53.0255 53.556 41.1943 53.556 26.5999C53.556 12.0055 41.567 0.174316 26.778 0.174316C11.989 0.174316 0 12.0055 0 26.5999Z" fill="#17A8D6"/>
<path fill-rule="evenodd" clip-rule="evenodd" d="M22.6293 59.7239V68.6565C22.6293 74.823 17.5634 79.8222 11.3147 79.8222H2.26293C1.66276 79.8222 1.08718 79.587 0.662797 79.1682C0.238415 78.7494 0 78.1814 0 77.5891V68.6565C0 62.49 5.06595 57.4907 11.3147 57.4907H20.3664C20.9665 57.4907 21.5421 57.726 21.9665 58.1448C22.3909 58.5636 22.6293 59.1316 22.6293 59.7239Z" fill="#8BD3EB"/>
<path fill-rule="evenodd" clip-rule="evenodd" d="M96.6454 49.7218V66.6483C96.6454 67.0432 96.4864 67.4218 96.2035 67.701C95.9206 67.9802 95.5368 68.1371 95.1367 68.1371H85.2372C84.8371 68.1371 84.4533 67.9802 84.1704 67.701C83.8875 67.4218 83.7286 67.0432 83.7286 66.6483V17.1275C83.7286 16.7326 83.8875 16.3539 84.1704 16.0747C84.4533 15.7955 84.8371 15.6387 85.2372 15.6387H104.653C110.998 15.6387 115.832 17.1855 119.156 20.2792C122.48 23.3736 124.141 27.5444 124.141 32.7915C124.141 36.0594 123.398 38.9669 121.913 41.5164C120.427 44.0659 118.225 46.0706 115.303 47.5311C112.383 48.9915 108.833 49.7218 104.652 49.7218H96.6454ZM103.218 39.549C108.404 39.549 110.998 37.2965 110.998 32.7915C110.998 28.1875 108.404 25.8859 103.218 25.8859H96.6454V39.549H103.218ZM129.807 15.4556C129.807 13.4063 130.463 11.7113 131.777 10.3714C133.09 9.03154 134.826 8.36159 136.983 8.36159C139.14 8.36159 140.875 9.03154 142.189 10.3714C143.502 11.7113 144.159 13.4063 144.159 15.4556C144.159 17.452 143.502 19.1202 142.189 20.4601C140.876 21.7999 139.14 22.4699 136.983 22.4699C134.826 22.4699 133.091 21.7999 131.777 20.4601C130.463 19.1202 129.807 17.452 129.807 15.4556ZM143.404 28.192V66.6483C143.404 67.0432 143.245 67.4218 142.962 67.701C142.679 67.9802 142.295 68.1371 141.895 68.1371H131.995C131.595 68.1371 131.212 67.9802 130.929 67.701C130.646 67.4218 130.487 67.0432 130.487 66.6483V28.1912C130.487 27.7964 130.646 27.4177 130.929 27.1385C131.212 26.8593 131.595 26.7025 131.995 26.7025H141.895C142.295 26.7025 142.679 26.8593 142.962 27.1385C143.245 27.4177 143.404 27.7971 143.404 28.192ZM171.353 26.1821C176.792 26.1821 181.349 27.656 185.025 30.6008C188.308 33.2307 190.506 36.739 191.62 41.1249C191.669 41.3166 191.672 41.5168 191.631 41.7102C191.589 41.9036 191.504 42.0851 191.381 42.241C191.258 42.3969 191.1 42.523 190.92 42.6097C190.74 42.6965 190.542 42.7416 190.342 42.7417H179.441C179.126 42.7417 178.818 42.644 178.562 42.4624C178.305 42.2808 178.113 42.0244 178.012 41.7293C178.004 41.7054 177.996 41.6816 177.987 41.6579C177.527 40.3879 176.801 39.3629 175.809 38.5836C174.55 37.5935 172.964 37.0985 171.051 37.0985C168.785 37.0985 166.921 37.9769 165.461 39.7336C164 41.4919 163.27 44.0533 163.27 47.4194C163.27 50.7862 164 53.3477 165.46 55.1052C166.921 56.8619 168.785 57.741 171.051 57.741C172.964 57.741 174.551 57.246 175.809 56.256C176.813 55.4669 177.543 54.4278 178.003 53.137L178.014 53.105C178.116 52.8112 178.308 52.5562 178.564 52.3756C178.82 52.195 179.127 52.0979 179.441 52.0978H190.552C190.727 52.098 190.899 52.1372 191.056 52.2124C191.213 52.2877 191.35 52.3971 191.458 52.5324C191.566 52.6676 191.641 52.8253 191.678 52.9935C191.716 53.1616 191.714 53.3359 191.673 53.5032C190.576 57.9881 188.36 61.5664 185.025 64.2387C181.349 67.1843 176.792 68.6567 171.353 68.6567C167.223 68.6567 163.559 67.8028 160.362 66.0945C157.164 64.3869 154.659 61.9244 152.846 58.7065C151.033 55.4885 150.127 51.7264 150.127 47.4194C150.127 43.0633 151.021 39.2885 152.808 36.0958C154.596 32.9024 157.101 30.4527 160.324 28.7443C163.547 27.0367 167.223 26.1829 171.352 26.1829L171.353 26.1821ZM240.621 28.192V66.6483C240.621 67.0432 240.462 67.4218 240.179 67.701C239.897 67.9802 239.513 68.1371 239.113 68.1371H229.137C228.737 68.1371 228.353 67.9802 228.07 67.701C227.787 67.4218 227.628 67.0432 227.628 66.6483V60.6374C226.42 63.0626 224.619 64.9935 222.227 66.4287C219.836 67.8646 217.053 68.5822 213.88 68.5822C209.046 68.5822 205.206 66.9982 202.361 63.8301C199.516 60.662 198.093 56.3058 198.093 50.7609V28.192C198.093 27.7971 198.252 27.4184 198.535 27.1393C198.818 26.8601 199.202 26.7032 199.602 26.7032H209.426C209.826 26.7032 210.21 26.8601 210.493 27.1393C210.776 27.4184 210.935 27.7971 210.935 28.192V49.2029C210.935 52.0241 211.678 54.2149 213.163 55.7744C214.649 57.3338 216.65 58.1132 219.168 58.1132C221.787 58.1132 223.852 57.2966 225.362 55.6627C226.873 54.0295 227.628 51.7026 227.628 48.6826V28.192C227.628 27.7971 227.787 27.4184 228.07 27.1393C228.353 26.8601 228.737 26.7032 229.137 26.7032H239.113C239.513 26.7032 239.897 26.8601 240.179 27.1393C240.462 27.4184 240.621 27.7971 240.621 28.192ZM262.451 14.6769V66.6483C262.451 67.0432 262.292 67.4218 262.009 67.701C261.726 67.9802 261.343 68.1371 260.942 68.1371H251.043C250.643 68.1371 250.259 67.9802 249.976 67.701C249.693 67.4218 249.534 67.0432 249.534 66.6483V14.6769C249.534 14.2821 249.693 13.9034 249.976 13.6242C250.259 13.345 250.643 13.1882 251.043 13.1882H260.943C261.343 13.1882 261.727 13.345 262.01 13.6242C262.293 13.9034 262.451 14.2821 262.451 14.6769ZM287.379 26.1829C290.602 26.1829 293.372 26.9005 295.688 28.3364C298.005 29.7715 299.716 31.727 300.825 34.2021V28.192C300.825 27.7971 300.984 27.4184 301.267 27.1393C301.55 26.8601 301.934 26.7032 302.334 26.7032H312.158C312.558 26.7032 312.942 26.8601 313.225 27.1393C313.508 27.4184 313.666 27.7971 313.666 28.192V66.6491C313.666 67.0439 313.508 67.4226 313.225 67.7018C312.942 67.981 312.558 68.1378 312.158 68.1378H302.334C301.934 68.1378 301.55 67.981 301.267 67.7018C300.984 67.4226 300.825 67.0439 300.825 66.6491V60.6382C299.716 63.1132 298.005 65.0687 295.688 66.5039C293.372 67.9398 290.602 68.6574 287.379 68.6574C283.904 68.6574 280.794 67.8036 278.05 66.0952C275.305 64.3876 273.14 61.9252 271.554 58.7072C269.968 55.4893 269.174 51.7271 269.174 47.4201C269.174 43.064 269.968 39.2892 271.554 36.0966C273.14 32.9032 275.305 30.4534 278.05 28.745C280.794 27.0374 283.904 26.1829 287.379 26.1829ZM291.534 37.3211C288.764 37.3211 286.535 38.2121 284.849 39.9942C283.161 41.7762 282.318 44.252 282.318 47.4194C282.318 50.5882 283.161 53.0633 284.849 54.8454C286.535 56.6274 288.764 57.5177 291.534 57.5177C294.253 57.5177 296.482 56.6021 298.219 54.7709C299.956 52.9397 300.825 50.4892 300.825 47.4194C300.825 44.3004 299.956 41.838 298.219 40.0314C296.481 38.2248 294.253 37.3211 291.534 37.3211ZM335.497 34.4999C337.108 31.9749 339.186 29.9696 341.728 28.4853C343.833 27.2563 346.083 26.535 348.48 26.3236C348.673 26.3065 348.867 26.3293 349.051 26.3904C349.235 26.4516 349.403 26.5498 349.546 26.6788C349.689 26.8077 349.803 26.9647 349.881 27.1396C349.96 27.3145 350 27.5036 350 27.6947V38.3573C350 38.7521 349.841 39.1308 349.558 39.41C349.275 39.6892 348.892 39.846 348.491 39.846H346.299C342.874 39.846 340.218 40.5636 338.329 41.9988C336.441 43.4347 335.497 45.8607 335.497 49.2759V66.6483C335.497 67.0432 335.338 67.4218 335.055 67.701C334.772 67.9802 334.388 68.1371 333.988 68.1371H324.089C323.689 68.1371 323.305 67.9802 323.022 67.701C322.739 67.4218 322.58 67.0432 322.58 66.6483V28.1912C322.58 27.7964 322.739 27.4177 323.022 27.1385C323.305 26.8593 323.689 26.7025 324.089 26.7025H333.988C334.388 26.7025 334.772 26.8593 335.055 27.1385C335.338 27.4177 335.497 27.7964 335.497 28.1912V34.4999Z" fill="#778A99"/>
</svg>
