<svg width="382" height="106" viewBox="0 0 382 106" fill="none" xmlns="http://www.w3.org/2000/svg">
<path d="M363.449 74.7507C366.303 74.7507 368.61 73.7586 370.37 71.7746C372.177 69.7433 373.081 66.7199 373.081 62.7045C373.081 58.6892 372.177 55.6894 370.37 53.7054C368.61 51.6741 366.303 50.6584 363.449 50.6584C362.022 50.6584 360.69 50.9182 359.453 51.4379C358.264 51.9103 357.218 52.6425 356.314 53.6345C355.458 54.6266 354.768 55.8784 354.245 57.3901C353.722 58.9018 353.46 60.6732 353.46 62.7045C353.46 64.7359 353.722 66.5073 354.245 68.019C354.768 69.5307 355.458 70.7825 356.314 71.7746C357.218 72.7666 358.264 73.5224 359.453 74.0421C360.69 74.5145 362.022 74.7507 363.449 74.7507ZM365.59 81.8366C362.783 81.8366 360.381 81.2225 358.383 79.9943C356.385 78.7188 354.768 77.0182 353.531 74.8924V93.6702H344.898V44.3519H352.889L353.389 50.7293C354.625 48.5563 356.243 46.832 358.24 45.5565C360.286 44.2811 362.783 43.6433 365.732 43.6433C367.92 43.6433 369.989 44.0449 371.94 44.8479C373.937 45.6038 375.674 46.7848 377.148 48.3909C378.623 49.9498 379.788 51.9339 380.644 54.3431C381.548 56.7051 382 59.4922 382 62.7045C382 65.9641 381.548 68.7985 380.644 71.2077C379.788 73.5697 378.599 75.5537 377.077 77.1599C375.602 78.7188 373.866 79.8998 371.868 80.7029C369.87 81.4587 367.778 81.8366 365.59 81.8366Z" fill="#2F3747"/>
<path d="M321.385 50.3041C318.912 50.3041 316.866 51.0127 315.249 52.4299C313.679 53.8471 312.633 55.9729 312.109 58.8073H329.162C329.257 55.9729 328.591 53.8471 327.164 52.4299C325.785 51.0127 323.858 50.3041 321.385 50.3041ZM336.797 78.2937C336.559 78.4826 336.083 78.7661 335.37 79.144C334.704 79.5219 333.8 79.9234 332.658 80.3486C331.564 80.7265 330.232 81.0572 328.663 81.3406C327.093 81.6713 325.285 81.8366 323.24 81.8366C316.438 81.8366 311.348 80.1596 307.971 76.8056C304.642 73.4516 302.977 68.7512 302.977 62.7045C302.977 59.7284 303.429 57.0594 304.332 54.6974C305.236 52.3354 306.497 50.3514 308.114 48.7452C309.731 47.0918 311.658 45.84 313.893 44.9897C316.176 44.0921 318.674 43.6433 321.385 43.6433C324.144 43.6433 326.641 44.0921 328.877 44.9897C331.112 45.8872 332.944 47.2335 334.371 49.0286C335.845 50.8238 336.868 53.0676 337.439 55.7603C338.009 58.453 338.009 61.5708 337.439 65.1138H311.967C312.3 68.3261 313.394 70.7353 315.249 72.3414C317.152 73.9476 319.958 74.7507 323.668 74.7507C325.19 74.7507 326.57 74.6326 327.806 74.3964C329.091 74.1129 330.185 73.8059 331.089 73.4752C332.04 73.0973 332.825 72.743 333.443 72.4123C334.109 72.0344 334.585 71.7273 334.87 71.4911L336.797 78.2937Z" fill="#2F3747"/>
<path d="M280.532 66.3184H277.321V81.128H268.688V44.3519H277.321V59.445H280.746L292.304 44.3519H301.294L287.524 61.996L302.008 81.128H291.734L280.532 66.3184Z" fill="#2F3747"/>
<path d="M224.729 44.3519H233.291V69.7905L250.986 44.3519H259.477V81.128H250.915V55.7603L233.291 81.128H224.729V44.3519Z" fill="#2F3747"/>
<path d="M195.238 70.4282C193.573 78.459 189.173 82.0492 182.038 81.1989L180.968 73.6878C182.776 73.8295 184.203 73.5224 185.249 72.7666C186.343 71.9635 187.128 70.5227 187.604 68.4442C188.174 65.8932 188.531 62.6337 188.674 58.6656C188.864 54.6974 188.959 49.9262 188.959 44.3519H215.501V81.128H206.868V51.2962H196.808C196.713 55.2171 196.57 58.7836 196.38 61.996C196.189 65.161 195.809 67.9718 195.238 70.4282Z" fill="#2F3747"/>
<path d="M151.902 59.7993H148.192V81.128H139.131V30.3926H148.192V52.1465H152.188L168.456 30.3926H178.088L159.394 55.3352L178.801 81.128H168.099L151.902 59.7993Z" fill="#2F3747"/>
<path d="M0 53C0 82.2711 24.0956 106 53.3667 106C82.6377 106 106.733 82.2711 106.733 53C106.733 23.7289 82.6377 0 53.3667 0C24.0956 0 0 23.7289 0 53Z" fill="#FC3F1D"/>
<path d="M61.2358 29.6819H55.8348C46.5759 29.6819 41.9466 34.2794 41.9466 41.1758C41.9466 48.8385 45.033 52.6697 51.9769 57.2675L57.378 61.0987L41.9466 84.8529H29.6016L44.2614 63.3976C35.7741 57.2675 31.1447 51.9035 31.1447 41.9421C31.1447 29.6819 39.6318 21.2529 55.8348 21.2529H72.0376V84.8529H61.2358V29.6819Z" fill="white"/>
</svg>
